<svg viewBox="0 0 48 48" fill="none" xmlns="http://www.w3.org/2000/svg">
  <path fill="#38BDF8" d="M24 12c-5.33 0-8.67 2.67-10 8 2-2.67 4.33-3.67 7-3 1.52.38 2.6 1.5 3.86 2.78C27.27 21.2 28.87 23 32 23c5.33 0 8.67-2.67 10-8-2 2.67-4.33 3.67-7 3-1.52-.38-2.6-1.5-3.86-2.78C28.73 14.8 27.13 13 24 12Zm-10 13c-5.33 0-8.67 2.67-10 8 2-2.67 4.33-3.67 7-3 1.52.38 2.6 1.5 3.86 2.78C17.27 34.2 18.87 36 22 36c5.33 0 8.67-2.67 10-8-2 2.67-4.33 3.67-7 3-1.52-.38-2.6-1.5-3.86-2.78C18.73 27.8 17.13 26 14 25Z"/>
</svg>
